<svg viewBox="0 0 400 400" xmlns="http://www.w3.org/2000/svg">
  <defs>
    <!-- Glowing cyan gradient -->
    <radialGradient id="cyanGlow" cx="50%" cy="50%" r="50%">
      <stop offset="0%" style="stop-color:#00ffff;stop-opacity:1"/>
      <stop offset="50%" style="stop-color:#00d4ff;stop-opacity:0.8"/>
      <stop offset="100%" style="stop-color:#0099cc;stop-opacity:0.4"/>
    </radialGradient>
    
    <!-- Brain gradient left (AI) -->
    <linearGradient id="brainAI" x1="0%" y1="0%" x2="100%" y2="100%">
      <stop offset="0%" style="stop-color:#001f3f"/>
      <stop offset="50%" style="stop-color:#003d6b"/>
      <stop offset="100%" style="stop-color:#005a8b"/>
    </linearGradient>
    
    <!-- Brain gradient right (Medical) -->
    <linearGradient id="brainMed" x1="0%" y1="0%" x2="100%" y2="100%">
      <stop offset="0%" style="stop-color:#003d6b"/>
      <stop offset="50%" style="stop-color:#005a8b"/>
      <stop offset="100%" style="stop-color:#007bb8"/>
    </linearGradient>
    
    <!-- Purple-cyan gradient for center -->
    <radialGradient id="purpleCyan" cx="50%" cy="50%" r="50%">
      <stop offset="0%" style="stop-color:#8e44ad"/>
      <stop offset="100%" style="stop-color:#00ffff"/>
    </radialGradient>
    
    <!-- Glow filter -->
    <filter id="glow" x="-50%" y="-50%" width="200%" height="200%">
      <feGaussianBlur stdDeviation="4" result="coloredBlur"/>
      <feMerge> 
        <feMergeNode in="coloredBlur"/>
        <feMergeNode in="SourceGraphic"/>
      </feMerge>
    </filter>
    
    <!-- Strong glow -->
    <filter id="strongGlow" x="-50%" y="-50%" width="200%" height="200%">
      <feGaussianBlur stdDeviation="6" result="coloredBlur"/>
      <feMerge> 
        <feMergeNode in="coloredBlur"/>
        <feMergeNode in="SourceGraphic"/>
      </feMerge>
    </filter>
  </defs>
  

  
  <!-- Enhanced Brain outline/shape -->
  <path d="M 130 110 
           Q 90 90, 75 130
           Q 65 170, 85 210
           Q 105 250, 145 265
           Q 175 275, 200 270
           Q 225 275, 255 265
           Q 295 250, 315 210
           Q 335 170, 325 130
           Q 310 90, 270 110
           Q 235 100, 200 105
           Q 165 100, 130 110 Z" 
        fill="none" 
        stroke="#00ffff" 
        stroke-width="4" 
        filter="url(#strongGlow)" 
        opacity="0.9"/>
  
  <!-- Left brain hemisphere (AI) - Enhanced -->
  <path d="M 130 110 
           Q 90 90, 75 130
           Q 65 170, 85 210
           Q 105 250, 145 265
           Q 172 273, 200 270
           L 200 105
           Q 165 100, 130 110 Z" 
        fill="url(#brainAI)" 
        stroke="#00ffff"
        stroke-width="1"
        opacity="0.95"/>
  
  <!-- Right brain hemisphere (Medical) - Enhanced -->
  <path d="M 200 105
           L 200 270
           Q 228 273, 255 265
           Q 295 250, 315 210
           Q 335 170, 325 130
           Q 310 90, 270 110
           Q 235 100, 200 105 Z" 
        fill="url(#brainMed)" 
        stroke="#40e0d0"
        stroke-width="1"
        opacity="0.95"/>
  
  <!-- Central dividing line (corpus callosum) - Enhanced -->
  <line x1="200" y1="105" x2="200" y2="270" stroke="#00ffff" stroke-width="3" opacity="0.8" filter="url(#glow)"/>
  
  <!-- LEFT HEMISPHERE - AI Neural Network -->
  <g>
    <!-- Enhanced Neural nodes -->
    <circle cx="135" cy="145" r="8" fill="#00ffff" filter="url(#strongGlow)">
      <animate attributeName="opacity" values="0.8;1;0.8" dur="2s" repeatCount="indefinite"/>
    </circle>
    <circle cx="115" cy="175" r="6" fill="#00d4ff" opacity="0.9"/>
    <circle cx="155" cy="185" r="7" fill="#00ffff" filter="url(#strongGlow)">
      <animate attributeName="opacity" values="0.7;1;0.7" dur="1.5s" repeatCount="indefinite"/>
    </circle>
    <circle cx="125" cy="215" r="5" fill="#40e0d0" opacity="0.8"/>
    <circle cx="165" cy="235" r="6" fill="#00ffff" filter="url(#strongGlow)">
      <animate attributeName="opacity" values="0.9;1;0.9" dur="2.5s" repeatCount="indefinite"/>
    </circle>
    <circle cx="105" cy="245" r="4" fill="#00d4ff" opacity="0.7"/>
    
    <!-- Enhanced Neural pathways -->
    <path d="M 135 145 Q 125 160 115 175" fill="none" stroke="#00ffff" stroke-width="3" opacity="0.8" filter="url(#glow)"/>
    <path d="M 135 145 Q 145 165 155 185" fill="none" stroke="#00ffff" stroke-width="3" opacity="0.8" filter="url(#glow)"/>
    <path d="M 115 175 Q 120 195 125 215" fill="none" stroke="#00d4ff" stroke-width="2" opacity="0.7"/>
    <path d="M 155 185 Q 160 210 165 235" fill="none" stroke="#00ffff" stroke-width="3" opacity="0.8" filter="url(#glow)"/>
    <path d="M 125 215 Q 145 225 165 235" fill="none" stroke="#40e0d0" stroke-width="2" opacity="0.7"/>
    <path d="M 115 175 Q 110 210 105 245" fill="none" stroke="#00d4ff" stroke-width="2" opacity="0.6"/>
    
    <!-- Circuit patterns -->
    <rect x="105" y="175" width="15" height="1.5" fill="#00ffff" opacity="0.8"/>
    <rect x="112" y="168" width="1.5" height="15" fill="#00ffff" opacity="0.8"/>
    <rect x="145" y="235" width="15" height="1.5" fill="#00d4ff" opacity="0.7"/>
    <rect x="152" y="228" width="1.5" height="15" fill="#00d4ff" opacity="0.7"/>
    
    <!-- AI processor chip -->
    <rect x="85" y="200" width="20" height="20" fill="none" stroke="#00ffff" stroke-width="1.5" opacity="0.6" rx="2"/>
    <circle cx="95" cy="210" r="1.5" fill="#00ffff"/>
    <circle cx="95" cy="210" r="6" fill="none" stroke="#00ffff" stroke-width="0.5" opacity="0.4"/>
  </g>
  
  <!-- RIGHT HEMISPHERE - Medical/DNA -->
  <g>
    <!-- Enhanced DNA helix -->
    <path d="M 225 135 Q 245 155 225 175 Q 205 195 225 215 Q 245 235 225 255" 
          fill="none" stroke="#00ffff" stroke-width="4" filter="url(#strongGlow)" opacity="0.9"/>
    <path d="M 265 135 Q 245 155 265 175 Q 285 195 265 215 Q 245 235 265 255" 
          fill="none" stroke="#40e0d0" stroke-width="4" filter="url(#strongGlow)" opacity="0.9"/>
    
    <!-- Enhanced DNA base pairs -->
    <line x1="225" y1="145" x2="265" y2="145" stroke="#00ffff" stroke-width="3" opacity="0.8"/>
    <line x1="235" y1="165" x2="255" y2="165" stroke="#40e0d0" stroke-width="3" opacity="0.8"/>
    <line x1="225" y1="185" x2="265" y2="185" stroke="#00ffff" stroke-width="3" opacity="0.8"/>
    <line x1="235" y1="205" x2="255" y2="205" stroke="#40e0d0" stroke-width="3" opacity="0.8"/>
    <line x1="225" y1="225" x2="265" y2="225" stroke="#00ffff" stroke-width="3" opacity="0.8"/>
    <line x1="235" y1="245" x2="255" y2="245" stroke="#40e0d0" stroke-width="3" opacity="0.8"/>
    
    <!-- Medical cross -->
    <g transform="translate(300,180)">
      <rect x="-8" y="-3" width="16" height="6" fill="#00ffff" opacity="0.8" rx="1"/>
      <rect x="-3" y="-8" width="6" height="16" fill="#00ffff" opacity="0.8" rx="1"/>
    </g>
    
    <!-- Cell structure -->
    <circle cx="280" cy="220" r="12" fill="none" stroke="#40e0d0" stroke-width="1.5" opacity="0.6"/>
    <circle cx="280" cy="220" r="6" fill="#00ffff" opacity="0.2"/>
    <circle cx="276" cy="216" r="1.5" fill="#00ffff"/>
    <circle cx="284" cy="224" r="1.5" fill="#40e0d0"/>
    <circle cx="276" cy="224" r="1.5" fill="#00ffff"/>
    <circle cx="284" cy="216" r="1.5" fill="#40e0d0"/>
    
  <!-- Enhanced cross-hemisphere connections -->
  <path d="M 155 185 Q 200 175 245 185" fill="none" stroke="#00ffff" stroke-width="1.5" opacity="0.5" stroke-dasharray="4,4">
    <animate attributeName="stroke-dashoffset" values="0;8" dur="2s" repeatCount="indefinite"/>
  </path>
  <path d="M 165 235 Q 200 225 255 235" fill="none" stroke="#40e0d0" stroke-width="1.5" opacity="0.5" stroke-dasharray="4,4">
    <animate attributeName="stroke-dashoffset" values="0;8" dur="1.8s" repeatCount="indefinite"/>
  </path>
  <path d="M 135 145 Q 200 135 265 145" fill="none" stroke="#00ffff" stroke-width="1.5" opacity="0.4" stroke-dasharray="4,4">
    <animate attributeName="stroke-dashoffset" values="0;8" dur="2.5s" repeatCount="indefinite"/>
  </path>
  </g>
  
  <!-- Central connection point enhanced -->
  <circle cx="200" cy="190" r="10" fill="url(#purpleCyan)" opacity="0.7" filter="url(#strongGlow)"/>
  <circle cx="200" cy="190" r="5" fill="#00ffff" opacity="1">
    <animate attributeName="r" values="5;8;5" dur="2s" repeatCount="indefinite"/>
    <animate attributeName="opacity" values="1;0.7;1" dur="2s" repeatCount="indefinite"/>
  </circle>
  
  <!-- Brain lobes definition -->
  <path d="M 120 180 Q 140 160 180 170" fill="none" stroke="#00ffff" stroke-width="1" opacity="0.3"/>
  <path d="M 220 170 Q 260 160 280 180" fill="none" stroke="#40e0d0" stroke-width="1" opacity="0.3"/>
  <path d="M 100 220 Q 130 240 180 235" fill="none" stroke="#00ffff" stroke-width="1" opacity="0.3"/>
  <path d="M 220 235 Q 270 240 300 220" fill="none" stroke="#40e0d0" stroke-width="1" opacity="0.3"/>
  

  <!-- Animated data flow particles -->
  <circle cx="150" cy="180" r="2" fill="#00ffff" opacity="0.8">
    <animateMotion dur="3s" repeatCount="indefinite">
      <path d="M 0 0 Q 25 -10 50 0 Q 75 10 100 0"/>
    </animateMotion>
  </circle>
  <circle cx="250" cy="180" r="2" fill="#40e0d0" opacity="0.8">
    <animateMotion dur="2.5s" repeatCount="indefinite">
      <path d="M 0 0 Q -25 -10 -50 0 Q -75 10 -100 0"/>
    </animateMotion>
  </circle>
</svg>