 <svg  version="1.0" xmlns="http://www.w3.org/2000/svg"  width="450.000000pt" height="450.000000pt" viewBox="0 0 450.000000 450.000000"  preserveAspectRatio="xMidYMid meet">  <g transform="translate(0.000000,450.000000) scale(0.100000,-0.100000)" fill="#1f23ad" stroke="none"> <path d="M2603 3734 c-9 -23 -42 -58 -65 -66 -17 -7 -21 -48 -4 -48 10 0 33 -20 69 -59 12 -12 32 -32 45 -44 12 -11 22 -26 22 -33 0 -7 5 -16 12 -20 7 -4 8 -3 4 4 -4 7 -5 12 -2 12 4 0 23 -38 78 -160 13 -29 17 -32 23 -18 13 33 -63 172 -140 253 -11 12 -27 30 -36 41 -9 10 -25 24 -35 30 -18 11 -18 13 10 43 32 33 56 40 56 16 0 -8 7 -15 16 -15 9 0 18 -8 21 -19 2 -10 16 -24 29 -30 14 -6 27 -18 30 -26 4 -8 10 -12 15 -9 5 3 6 -1 3 -9 -3 -8 2 -17 10 -20 9 -4 16 -13 16 -22 0 -8 5 -15 11 -15 5 0 8 -4 4 -9 -3 -6 0 -13 7 -18 17 -10 38 -49 38 -68 0 -15 19 -54 31 -65 3 -3 10 -32 16 -65 8 -44 8 -64 -1 -74 -8 -12 -8 -13 2 -7 13 8 16 -17 11 -114 -2 -30 -3 -72 -3 -92 -1 -21 -9 -46 -18 -58 -10 -11 -14 -20 -9 -20 8 0 8 -28 1 -37 -2 -2 -3 -6 -4 -10 -6 -27 -18 -53 -25 -53 -3 0 -7 -8 -8 -17 -1 -10 -8 -36 -16 -57 -13 -36 -15 -37 -26 -20 -12 18 -12 18 -8 -3 3 -12 -1 -27 -9 -34 -8 -6 -14 -17 -14 -24 0 -22 -163 -195 -215 -227 -16 -10 -26 -18 -21 -18 8 0 2 -6 -53 -52 -12 -10 -25 -18 -31 -18 -5 0 -13 -6 -17 -12 -4 -7 -17 -18 -27 -24 -11 -6 -22 -16 -24 -22 -6 -19 35 -14 50 6 15 19 44 40 71 48 9 4 17 12 17 19 0 8 9 17 20 20 11 3 20 10 20 14 0 5 18 21 40 36 22 15 42 36 45 46 3 10 15 21 26 24 10 4 19 11 19 17 0 6 17 27 38 47 38 37 94 113 105 144 4 9 11 17 17 17 6 0 9 4 6 9 -3 5 5 33 19 63 14 29 25 61 25 71 0 9 4 17 9 17 21 0 35 206 23 336 -8 75 -17 114 -36 152 -14 28 -26 58 -26 67 0 8 -4 15 -10 15 -5 0 -10 9 -10 19 0 11 -16 37 -35 58 -19 21 -35 41 -35 45 0 5 -20 28 -45 54 -25 25 -45 50 -45 56 0 6 -3 8 -7 5 -4 -4 -19 5 -35 19 -26 26 -28 26 -35 8z"/> <path d="M1838 3571 c-13 -10 -36 -25 -53 -34 -41 -22 -135 -112 -135 -130 0 -8 -6 -17 -12 -20 -20 -7 -92 -161 -87 -183 1 -5 -1 -17 -6 -27 -11 -26 1 -226 16 -262 6 -16 14 -39 16 -49 2 -11 7 -24 12 -30 4 -6 11 -24 15 -39 4 -15 10 -26 14 -23 5 3 14 -15 21 -40 7 -24 17 -44 22 -44 5 0 14 -11 21 -25 6 -13 15 -22 19 -19 5 3 9 0 9 -6 0 -6 29 -44 65 -85 36 -41 65 -72 65 -68 0 4 9 -3 20 -15 12 -12 28 -22 38 -22 12 0 13 -3 5 -8 -12 -8 -2 -18 91 -92 22 -17 46 -28 53 -26 7 3 13 -1 13 -8 0 -7 18 -25 40 -40 34 -22 40 -24 40 -9 0 9 -3 14 -6 11 -3 -3 -20 9 -37 26 -18 18 -39 35 -48 39 -31 11 -107 72 -118 95 -6 12 -17 22 -25 22 -7 0 -17 7 -20 16 -3 8 -10 12 -16 9 -5 -3 -10 -2 -10 2 0 8 -25 39 -97 118 -10 11 -30 38 -44 60 -15 22 -36 50 -48 62 -11 12 -21 31 -21 43 0 11 -4 20 -9 20 -11 0 -30 53 -33 92 -1 15 -7 26 -12 25 -11 -2 -28 81 -20 94 3 5 0 9 -5 9 -7 0 -11 30 -11 80 0 50 4 80 11 80 5 0 7 5 4 10 -4 6 1 24 9 41 9 17 18 46 22 65 3 19 10 34 15 34 5 0 9 9 9 20 0 11 5 20 10 20 6 0 10 7 10 15 0 8 7 15 15 15 8 0 15 4 15 9 0 6 13 24 30 42 23 26 32 31 42 21 9 -9 8 -12 -5 -12 -9 0 -17 -6 -17 -14 0 -8 -9 -30 -20 -49 -35 -60 -52 -145 -54 -267 0 -98 3 -125 24 -185 14 -38 30 -76 37 -83 7 -7 13 -21 13 -30 0 -9 9 -28 20 -42 11 -14 20 -33 20 -42 0 -10 4 -18 9 -18 5 0 24 -20 42 -45 19 -24 40 -45 47 -45 6 0 12 -3 12 -7 0 -16 212 -215 233 -219 4 -1 12 -2 17 -3 6 0 10 -7 10 -15 0 -13 48 -36 77 -36 19 0 -35 52 -74 70 -16 8 -30 19 -31 24 -1 6 -8 11 -17 12 -8 1 -27 16 -42 33 -15 17 -33 31 -40 31 -7 0 -13 7 -13 15 0 8 -5 15 -12 15 -16 0 -154 143 -173 180 -8 16 -19 30 -23 30 -4 0 -16 20 -26 45 -11 25 -23 45 -28 45 -4 0 -8 9 -8 20 0 11 -9 39 -20 63 -33 72 -47 289 -20 322 4 5 11 25 13 44 3 19 9 37 14 40 4 3 10 15 11 26 2 11 10 27 18 36 8 8 14 21 14 27 0 7 3 12 8 12 4 0 13 13 20 29 16 36 54 81 69 81 6 0 16 6 22 14 19 22 -14 28 -41 7z"/> <path d="M2620 3389 c0 -5 5 -7 10 -4 6 3 10 8 10 11 0 2 -4 4 -10 4 -5 0 -10 -5 -10 -11z"/> <path d="M2233 3316 c-6 -8 -9 -17 -6 -20 4 -3 -3 -6 -15 -6 -15 0 -22 -8 -27 -30 -7 -33 1 -70 16 -70 5 0 9 -6 9 -12 0 -14 45 -38 69 -38 19 1 91 59 74 60 -7 0 -13 -5 -13 -12 0 -6 -6 -3 -14 7 -13 18 -14 18 -20 -2 -8 -24 -37 -35 -53 -19 -29 27 -41 34 -47 29 -3 -4 -6 13 -6 36 0 28 4 40 11 36 6 -4 17 2 25 14 11 14 26 21 50 21 19 0 34 5 34 10 0 15 -73 11 -87 -4z"/> <path d="M2307 3287 c-5 -13 0 -16 23 -14 17 1 30 6 30 11 0 4 -9 6 -20 3 -10 -3 -21 0 -23 6 -2 6 -6 4 -10 -6z"/> <path d="M2370 3271 c0 -5 15 -9 34 -9 19 0 39 -3 45 -6 5 -4 12 -2 15 2 3 5 18 8 33 6 16 -2 77 -5 137 -6 81 -2 110 0 113 10 4 9 -38 12 -186 12 -107 0 -191 -4 -191 -9z"/> <path d="M2486 3242 c-4 -7 -18 -12 -31 -12 -13 0 -26 -4 -29 -8 -2 -4 69 -9 160 -10 107 -2 164 1 164 8 0 6 -46 10 -124 10 -88 0 -126 4 -128 12 -3 9 -6 9 -12 0z"/> <path d="M2372 3228 c3 -7 13 -15 22 -16 12 -3 17 1 14 10 -3 7 -13 15 -22 16 -12 3 -17 -1 -14 -10z"/> <path d="M2791 3148 c0 -46 -3 -95 -7 -110 -7 -32 1 -35 42 -13 27 14 27 15 7 15 -22 0 -23 2 -18 77 5 79 1 113 -16 113 -5 0 -9 -37 -8 -82z"/> <path d="M2364 2996 c1 -29 17 -34 36 -11 9 11 16 12 25 5 9 -8 15 -7 19 2 5 10 7 10 12 1 3 -7 10 -13 15 -13 6 0 7 5 4 10 -4 6 10 10 35 10 23 0 39 -4 36 -9 -4 -5 17 -8 47 -7 28 1 62 -2 74 -6 13 -4 25 -3 29 3 4 7 10 6 19 -1 9 -8 15 -8 20 0 3 6 11 8 16 5 5 -4 9 1 9 9 0 14 -23 16 -177 16 -98 0 -188 3 -199 6 -19 5 -22 2 -20 -20z m229 -3 c-7 -2 -19 -2 -25 0 -7 3 -2 5 12 5 14 0 19 -2 13 -5z"/> <path d="M2854 2994 c3 -8 6 -18 6 -20 0 -3 5 -2 10 1 15 9 12 22 -6 29 -12 5 -15 2 -10 -10z"/> <path d="M2498 2983 c6 -2 18 -2 25 0 6 3 1 5 -13 5 -14 0 -19 -2 -12 -5z"/> <path d="M2759 2948 c-2 -34 -11 -63 -19 -66 -6 -2 -10 -14 -10 -27 0 -47 -22 -55 -148 -56 -64 0 -138 -1 -164 -1 -27 0 -48 -4 -48 -9 0 -5 8 -9 18 -9 9 0 79 -2 155 -3 75 -2 137 0 137 5 0 4 11 8 23 8 18 0 30 11 48 47 13 26 23 51 21 56 -4 14 20 39 53 53 l30 13 -47 1 c-32 0 -48 -4 -49 -12z"/> <path d="M2240 2850 c0 -5 -6 -10 -13 -10 -42 0 -69 -112 -33 -132 9 -5 16 -16 16 -25 0 -9 6 -13 15 -10 8 4 17 2 20 -3 16 -26 110 8 110 40 0 17 25 35 33 25 4 -6 50 -12 103 -13 75 -3 100 0 111 12 9 8 18 12 22 9 3 -4 6 -1 6 6 0 10 -10 11 -36 7 -22 -5 -41 -3 -50 5 -10 8 -14 8 -14 0 0 -6 -13 -11 -30 -11 -17 0 -30 5 -30 13 0 9 -2 9 -8 0 -4 -7 -23 -12 -42 -11 -65 2 -82 -2 -87 -21 -2 -10 -15 -24 -27 -31 -32 -17 -91 9 -98 42 -6 31 8 71 22 63 6 -3 13 1 16 9 9 24 48 19 78 -9 33 -31 36 -31 36 -2 0 14 -11 28 -31 40 -33 18 -89 23 -89 7z"/> <path d="M2730 2760 c0 -5 5 -10 11 -10 5 0 7 5 4 10 -3 6 -8 10 -11 10 -2 0 -4 -4 -4 -10z"/> <path d="M2643 2714 c3 -3 -19 -31 -49 -62 -30 -31 -54 -60 -54 -66 0 -5 -2 -7 -5 -4 -3 2 -32 -22 -65 -54 -33 -32 -64 -58 -68 -58 -4 0 -19 -10 -34 -23 -58 -49 -64 -54 -81 -60 -19 -7 -22 -23 -7 -32 11 -7 77 39 98 68 7 9 18 15 23 12 5 -4 9 1 9 10 0 9 4 14 9 11 5 -3 11 1 15 9 3 8 12 15 20 15 7 0 16 7 20 15 3 8 10 15 16 15 12 0 40 24 40 34 0 10 53 61 61 59 4 -2 10 6 14 16 3 11 12 22 20 25 8 3 15 12 15 21 0 8 7 15 15 15 8 0 15 9 15 20 0 12 -7 20 -17 20 -9 0 -14 -3 -10 -6z"/> <path d="M1815 2610 c-3 -5 -1 -10 4 -10 6 0 11 5 11 10 0 6 -2 10 -4 10 -3 0 -8 -4 -11 -10z"/> <path d="M2237 2345 c-3 -7 -3 -15 0 -18 7 -7 33 3 33 13 0 14 -28 19 -33 5z"/> <path d="M2135 2320 c3 -5 8 -10 11 -10 2 0 4 5 4 10 0 6 -5 10 -11 10 -5 0 -7 -4 -4 -10z"/> <path d="M2343 2272 c10 -10 17 -23 17 -29 0 -6 8 -14 17 -17 15 -6 15 -8 3 -16 -12 -8 -10 -10 8 -10 13 0 29 -6 36 -12 7 -7 37 -33 67 -58 85 -70 246 -235 254 -259 3 -11 11 -21 16 -21 5 0 9 -7 9 -15 0 -7 6 -18 13 -22 7 -4 19 -24 27 -43 8 -19 20 -41 27 -48 7 -7 16 -25 19 -40 9 -45 13 -53 21 -49 5 3 8 -9 9 -26 0 -18 4 -68 8 -112 8 -84 -5 -197 -24 -203 -6 -2 -10 -17 -10 -33 0 -16 -4 -29 -9 -29 -5 0 -17 -17 -26 -37 -10 -21 -24 -43 -31 -51 -8 -7 -20 -22 -28 -34 -9 -12 -19 -17 -27 -13 -9 6 -9 11 2 19 20 16 39 53 39 75 0 11 5 21 10 23 21 7 32 235 15 321 -5 25 -4 37 4 37 6 0 11 8 11 18 -1 16 -1 16 -11 -1 -14 -23 -30 -12 -25 17 3 14 -3 29 -15 39 -10 9 -19 24 -19 32 0 8 -4 15 -8 15 -4 0 -8 10 -9 21 -1 12 -9 29 -17 38 -9 10 -16 22 -16 27 0 5 -28 41 -63 80 -84 96 -102 114 -141 148 -19 15 -46 39 -60 52 -14 13 -26 21 -26 19 0 -6 -38 25 -99 82 -25 24 -51 43 -58 43 -15 0 -64 -21 -80 -35 -6 -5 -24 -20 -40 -32 -15 -12 -44 -36 -63 -53 -35 -30 -44 -34 -68 -31 -9 2 -12 -4 -8 -17 5 -14 -5 -26 -39 -51 -25 -18 -45 -36 -45 -41 0 -5 -13 -17 -30 -27 -16 -9 -30 -23 -30 -30 0 -11 -15 -30 -72 -89 l-20 -22 21 -11 c17 -10 21 -9 21 4 0 9 7 18 15 21 8 4 13 9 10 14 -2 4 7 18 20 30 14 13 25 29 25 37 0 7 4 13 9 13 12 0 66 53 63 62 -1 4 4 8 10 8 7 0 26 15 43 33 16 19 44 43 60 53 31 20 37 25 120 99 28 24 53 45 57 45 4 0 19 -11 33 -26 14 -14 30 -22 37 -18 7 4 8 3 4 -5 -4 -6 0 -14 11 -18 10 -4 23 -12 29 -17 6 -6 28 -24 49 -41 21 -16 52 -44 70 -62 18 -18 35 -30 38 -26 3 3 9 -6 13 -20 3 -15 9 -26 13 -25 19 2 31 -4 31 -16 0 -8 9 -17 19 -21 14 -4 18 -11 14 -23 -6 -15 -5 -16 12 -2 12 10 16 11 11 2 -5 -8 1 -20 15 -33 12 -10 19 -19 15 -19 -4 0 5 -17 21 -37 37 -50 63 -97 63 -116 0 -9 6 -22 14 -29 12 -12 25 -60 27 -98 1 -8 8 -34 16 -57 14 -38 14 -79 -2 -145 -3 -12 -7 -41 -10 -63 -2 -22 -9 -41 -14 -43 -5 -2 -7 -10 -4 -18 3 -8 -1 -22 -9 -32 -8 -9 -25 -39 -39 -65 -26 -52 -56 -90 -67 -84 -4 2 -15 -5 -25 -15 -30 -31 7 -35 47 -4 19 14 39 26 44 26 5 0 15 7 22 15 7 8 16 12 21 9 5 -3 9 2 9 10 0 9 7 16 15 16 8 0 15 7 15 16 0 9 9 18 20 21 11 3 20 11 20 18 0 7 7 18 15 25 8 7 15 19 15 27 0 8 7 21 15 29 8 9 15 27 15 40 0 14 4 23 9 20 12 -8 24 93 22 202 -1 72 -7 108 -27 165 -15 39 -26 80 -26 90 1 9 -6 17 -14 17 -8 0 -14 9 -14 20 0 19 -14 41 -52 82 -10 10 -18 24 -18 32 0 18 -168 196 -186 196 -7 0 -16 9 -19 20 -4 11 -10 18 -15 15 -4 -3 -10 2 -14 10 -3 8 -10 15 -15 15 -6 0 -25 15 -44 33 -43 41 -70 62 -96 77 -12 6 -21 17 -21 25 0 8 -7 15 -17 15 -15 0 -15 -1 0 -18z"/> <path d="M2073 2232 c-10 -10 -31 -23 -46 -30 -16 -7 -31 -21 -34 -32 -3 -11 -10 -17 -15 -14 -5 3 -23 -9 -39 -27 -17 -19 -34 -34 -38 -34 -10 0 -181 -176 -181 -185 0 -4 -11 -20 -25 -36 -14 -16 -25 -33 -25 -37 0 -5 -4 -5 -10 -2 -6 4 -10 -5 -10 -19 0 -14 -4 -26 -9 -26 -8 0 -22 -35 -18 -44 1 -2 -5 -12 -13 -22 -27 -32 -63 -131 -54 -146 3 -5 0 -16 -7 -24 -17 -21 -23 -188 -9 -244 6 -25 11 -56 11 -69 -1 -13 3 -29 8 -35 5 -6 11 -20 13 -31 1 -11 5 -22 8 -25 3 -3 19 -31 34 -63 53 -109 209 -287 252 -287 21 0 108 86 100 99 -4 6 -11 11 -16 11 -15 0 -136 124 -156 160 -10 19 -25 39 -31 43 -7 4 -13 13 -13 20 0 7 -9 23 -20 37 -11 14 -20 34 -21 45 -1 15 -2 16 -6 4 -2 -10 -13 -15 -26 -14 -12 1 -14 0 -4 -2 15 -4 22 -21 15 -39 -2 -4 7 -11 20 -15 13 -5 21 -13 17 -18 -3 -5 0 -13 5 -16 6 -4 15 -17 21 -28 14 -33 29 -52 90 -117 31 -33 61 -60 67 -60 22 0 18 -27 -9 -54 -28 -29 -29 -29 -56 -11 -32 21 -151 145 -139 145 2 0 -9 14 -25 31 -16 17 -29 40 -29 50 0 10 -4 19 -9 19 -8 0 -36 67 -43 105 -2 11 -9 19 -14 18 -6 -1 -9 13 -8 30 1 18 -2 38 -8 44 -6 8 -9 52 -6 112 2 55 0 97 -4 95 -4 -3 -8 -1 -8 5 0 5 5 11 11 13 5 2 13 24 16 48 3 25 10 50 15 57 5 7 7 22 3 35 -5 18 -4 20 4 8 10 -13 11 -13 12 0 1 8 1 18 0 23 0 4 4 7 10 7 5 0 7 4 4 10 -7 11 58 115 89 143 10 9 15 17 10 17 -5 0 -2 6 7 13 9 7 19 24 23 40 4 18 13 27 26 27 12 0 20 7 20 18 0 9 13 26 29 37 17 11 28 21 26 24 -6 6 38 37 48 33 4 -1 7 4 7 12 0 8 9 18 20 21 11 3 20 13 20 21 0 8 7 14 15 14 8 0 15 5 15 10 0 6 5 10 11 10 15 0 39 26 32 34 -4 3 1 6 10 6 17 0 77 47 77 61 0 15 -18 10 -37 -9z"/> <path d="M2310 2211 c0 -6 4 -13 10 -16 6 -3 7 1 4 9 -7 18 -14 21 -14 7z"/> <path d="M2055 2110 c3 -5 11 -10 16 -10 6 0 7 5 4 10 -3 6 -11 10 -16 10 -6 0 -7 -4 -4 -10z"/> <path d="M2010 2079 c0 -5 5 -7 10 -4 6 3 10 8 10 11 0 2 -4 4 -10 4 -5 0 -10 -5 -10 -11z"/> <path d="M2460 2050 c0 -5 5 -10 10 -10 6 0 10 5 10 10 0 6 -4 10 -10 10 -5 0 -10 -4 -10 -10z"/> <path d="M2526 2045 c4 -8 8 -15 10 -15 2 0 4 7 4 15 0 8 -4 15 -10 15 -5 0 -7 -7 -4 -15z"/> <path d="M2640 1911 c0 -5 7 -12 16 -15 14 -5 15 -4 4 9 -14 17 -20 19 -20 6z"/> <path d="M2871 1904 c0 -11 3 -14 6 -6 3 7 2 16 -1 19 -3 4 -6 -2 -5 -13z"/> <path d="M2667 1866 c-4 -10 -1 -13 8 -9 8 3 12 9 9 14 -7 12 -11 11 -17 -5z"/> <path d="M2144 1801 c-11 -11 -2 -17 24 -17 16 0 34 6 41 13 10 11 5 13 -24 11 -20 -2 -38 -5 -41 -7z"/> <path d="M2580 1780 c0 -5 5 -10 11 -10 5 0 7 5 4 10 -3 6 -8 10 -11 10 -2 0 -4 -4 -4 -10z"/> <path d="M2106 1773 c-12 -12 -5 -23 14 -23 11 0 20 4 20 9 0 11 -26 22 -34 14z"/> <path d="M2210 1768 c0 -4 5 -8 11 -8 16 0 35 -22 42 -49 4 -18 1 -24 -14 -28 -10 -3 -19 -13 -19 -23 0 -24 -71 -36 -83 -15 -4 8 -15 15 -24 15 -14 0 -14 -2 2 -20 10 -11 24 -20 32 -20 7 0 13 -4 13 -10 0 -5 5 -10 11 -10 5 0 8 4 4 9 -3 5 -1 12 5 16 5 3 10 1 10 -4 0 -6 5 -10 12 -8 17 3 45 31 41 40 -2 4 0 7 6 7 19 0 23 59 5 89 -16 26 -54 40 -54 19z"/> <path d="M1815 1740 c-10 -16 243 -16 260 1 5 5 -42 9 -122 9 -77 0 -134 -4 -138 -10z"/> <path d="M2770 1740 c0 -5 5 -10 10 -10 6 0 10 5 10 10 0 6 -4 10 -10 10 -5 0 -10 -4 -10 -10z"/> <path d="M1743 1723 c-3 -10 -14 -27 -23 -38 -10 -11 -25 -48 -36 -82 -10 -35 -21 -63 -26 -63 -4 0 -8 -4 -8 -10 0 -5 8 -10 19 -10 13 0 22 12 31 45 7 24 16 43 19 40 4 -2 7 4 7 13 0 60 4 70 24 65 11 -3 20 0 20 6 0 6 -5 11 -11 11 -6 0 -9 9 -6 20 6 25 -1 27 -10 3z"/> <path d="M1870 1700 c0 -4 -20 -5 -45 -2 -30 3 -45 1 -45 -7 0 -6 15 -11 33 -11 268 -3 297 -2 297 11 0 7 -30 9 -95 7 -52 -3 -97 -2 -100 1 -8 8 -45 9 -45 1z"/> <path d="M1706 1495 c4 -8 18 -15 33 -15 14 0 104 -1 199 -3 158 -2 172 -1 172 16 0 16 -16 17 -205 17 -178 0 -204 -2 -199 -15z"/> <path d="M1604 1484 c3 -9 6 -20 6 -25 0 -6 4 -8 9 -5 12 8 2 46 -11 46 -6 0 -7 -7 -4 -16z"/> <path d="M1640 1462 c0 -5 3 -12 8 -16 4 -4 8 -33 10 -64 4 -89 5 -96 18 -109 7 -7 21 -13 31 -13 24 0 47 -16 40 -27 -3 -5 3 -14 14 -21 10 -7 19 -9 19 -5 0 5 65 6 145 5 149 -4 206 3 153 18 -15 5 -63 6 -107 4 -75 -4 -106 5 -86 24 4 4 10 2 12 -4 3 -8 19 -8 54 -2 37 7 55 6 65 -3 11 -9 18 -9 26 -1 16 16 51 15 67 0 10 -11 11 -10 6 3 -4 10 0 19 10 23 9 3 14 10 10 16 -8 13 39 24 70 16 13 -3 31 -20 40 -36 17 -33 19 -44 6 -36 -5 3 -12 -5 -15 -18 -9 -37 -60 -45 -92 -15 -34 32 -52 12 -24 -24 31 -39 88 -38 130 3 40 39 40 83 2 130 -24 28 -35 33 -65 32 -21 -1 -48 -9 -62 -19 -25 -18 -35 -40 -12 -27 9 5 9 4 1 -5 -7 -8 -75 -12 -217 -14 l-206 -3 -7 64 c-3 35 -4 79 -1 98 5 31 4 34 -19 34 -13 0 -24 -4 -24 -8z m228 -214 c-3 -8 -24 -13 -56 -13 -55 0 -71 11 -24 17 76 9 84 8 80 -4z"/> <path d="M2150 1240 c20 -13 33 -13 25 0 -3 6 -14 10 -23 10 -15 0 -15 -2 -2 -10z"/> <path d="M1808 923 c7 -3 16 -2 19 1 4 3 -2 6 -13 5 -11 0 -14 -3 -6 -6z"/> </g> </svg> 